# xmcd
#
# Track frame offsets:
#	150
#	12455
#	29825
#	46580
#	62600
#	73502
#	86312
#	102615
#	116132
#	127450
#	139767
#
# Disc length: 2061 seconds
#
# Revision: 0
# Processed by: cddbd v1.4PL0 Copyright (c) Steve Scherf et al.
# Submitted via: EasyCDDAExtractor 4.5.0.2
#
DISCID=a1080b0b
DTITLE=Gil Grand - Famous First Words
DYEAR=1998
DGENRE=Country
TTITLE0=Famous First Words
TTITLE1=Spilled Perfume
TTITLE2=Clouds
TTITLE3=Love Me Or Not (Here I Come)
TTITLE4=Bone Dry Heart
TTITLE5=Let's Start Livin'
TTITLE6=Look At Me, Look At You
TTITLE7=I Can't Put Your Memory To Bed
TTITLE8=Certain Kind Of Fool
TTITLE9=I Already Fell
TTITLE10=Thanks For The G-Chord
EXTD=
EXTT0=
EXTT1=
EXTT2=
EXTT3=
EXTT4=
EXTT5=
EXTT6=
EXTT7=
EXTT8=
EXTT9=
EXTT10=
PLAYORDER=
